Harry Potter and the Deathly Hallows: Part 1 (2010) 1080P DD5.1 & DTS



Nederlands: 

Verenigd Koninkrijk / Verenigde Staten
Avontuur / Fantasy
146 minuten

geregisseerd door David Yates
met Daniel Radcliffe, Emma Watson en Rupert Grint

Heel Groot-Brittanië wordt in haar greep gehouden door Heer Voldemort (Ralph Fiennes), die maar één doel voor ogen heeft: het opsporen en doden van Harry Potter (Daniel Radclife). Terwijl het hele land in oorlog verkeert, houden de bebrilde held en zijn twee beste vrienden Ron (Rupert Grint) en Hermelien (Emma Watson) zich schuil in de verste uithoeken van de Dreuzelwereld. Daar gaan ze op een levensgevaarlijke zoektocht naar de overgebleven Gruzielementen, de voorwerpen die Voldemorts ontsterfelijkheid garanderen. In de eerste helft van J.K. Rowling's laatste boek zal Harry zich bevinden in de duisterste gevaren, de meest epische avonturen en de diepste geheimen, waarvan er één hem in zijn ban zal houden: een oude legende, de Relieken van de Dood.
 
http://www.moviemeter.nl/film/61974

English
Voldemort's power is growing stronger. He now has control over the Ministry of Magic and Hogwarts. Harry, Ron, and Hermione decide to finish Dumbledore's work and find the rest of the Horcruxes to defeat the Dark Lord. But little hope remains for the Trio, and the rest of the Wizarding World, so everything they do must go as planned. 
 
http://www.imdb.com/title/tt0926084/


...bron: twiz-hp7part1-1080p
...Beeld: 720 (1920*800)
...Container: x264 (MKV)
...Ondertitels: English & NEDERLANDS
...Audio: English DD5.1 & DTS (ac3 Toegevoegd) 


Subtitles.NL.......: Vertaald door Tokke, Biteme en Suurtje (great Work)
Controle...........: Suurtje
Bewerking+Resync...: Suurtje 


  Category : Video 
  Format : x264HD 
  Source : Retail 
  Subtitle : English subs optional  
  Genre : Adventure Fantasy  
  Language : English audio  
  
 
Weblink :  http://www.moviemeter.nl/film/61974
Weblink :  http://www.imdb.com/title/tt0926084

TBS


MEDIA INFO

General
Complete name                    : Harry.Potter.Deathly.Hallows.P1.2010.NLSUBS.x264.1080p.BluRay.AC3-DTS-SRT\Harry.Potter.Deathly.Hallows.P1.2010.NLSUBS.x264.1080p.BluRay.AC3-DTS-SRT.mkv
Format                           : Matroska
File size                        : 11.6 GiB
Duration                         : 2h 26mn
Overall bit rate                 : 11.4 Mbps
Encoded date                     : UTC 2011-03-29 21:06:53
Writing application              : mkvmerge v2.3.0 ('Freak U') built on Sep  8 2008 18:32:16
Writing library                  : libebml v0.7.7 + libmatroska v0.8.1

Video
ID                               : 1
Format                           : AVC
Format/Info                      : Advanced Video Codec
Format profile                   : High@L4.1
Format settings, CABAC           : Yes
Format settings, ReFrames        : 5 frames
Muxing mode                      : Container profile=Unknown@4.1
Codec ID                         : V_MPEG4/ISO/AVC
Duration                         : 2h 26mn
Bit rate                         : 9 205 Kbps
Width                            : 1 920 pixels
Height                           : 800 pixels
Display aspect ratio             : 2.40:1
Frame rate                       : 23.976 fps
Color space                      : YUV
Chroma subsampling               : 4:2:0
Bit depth                        : 8 bits
Scan type                        : Progressive
Bits/(Pixel*Frame)               : 0.250
Stream size                      : 9.17 GiB (79%)
Title                            : hp7part1-1080p
Writing library                  : x264 core 114 r1924 08d04a4
Encoding settings                : cabac=1 / ref=5 / deblock=1:0:0 / analyse=0x3:0x133 / me=umh / subme=7 / psy=1 / psy_rd=1.00:0.00 / mixed_ref=1 / me_range=16 / chroma_me=1 / trellis=1 / 8x8dct=1 / cqm=0 / deadzone=21,11 / fast_pskip=0 / chroma_qp_offset=-2 / threads=12 / sliced_threads=0 / nr=0 / decimate=0 / interlaced=0 / constrained_intra=0 / bframes=3 / b_pyramid=2 / b_adapt=1 / b_bias=0 / direct=1 / weightb=1 / open_gop=1 / weightp=2 / keyint=250 / keyint_min=23 / scenecut=40 / intra_refresh=0 / rc_lookahead=40 / rc=2pass / mbtree=1 / bitrate=9205 / ratetol=1.0 / qcomp=0.60 / qpmin=0 / qpmax=51 / qpstep=4 / cplxblur=20.0 / qblur=0.5 / ip_ratio=1.40 / aq=1:1.00
Language                         : English

Audio #1
ID                               : 2
Format                           : AC-3
Format/Info                      : Audio Coding 3
Mode extension                   : CM (complete main)
Codec ID                         : A_AC3
Duration                         : 2h 26mn
Bit rate mode                    : Constant
Bit rate                         : 640 Kbps
Channel(s)                       : 6 channels
Channel positions                : Front: L C R, Side: L R, LFE
Sampling rate                    : 48.0 KHz
Bit depth                        : 16 bits
Stream size                      : 669 MiB (6%)
Title                            : English AC3
Language                         : English

Audio #2
ID                               : 3
Format                           : DTS
Format/Info                      : Digital Theater Systems
Codec ID                         : A_DTS
Duration                         : 2h 26mn
Bit rate mode                    : Constant
Bit rate                         : 1 510 Kbps
Channel(s)                       : 6 channels
Channel positions                : Front: L C R, Side: L R, LFE
Sampling rate                    : 48.0 KHz
Bit depth                        : 24 bits
Video delay                      : 11ms
Stream size                      : 1.54 GiB (13%)
Title                            : English DTS
Language                         : English

Text
ID                               : 4
Format                           : UTF-8
Codec ID                         : S_TEXT/UTF8
Codec ID/Info                    : UTF-8 Plain Text
Title                            : Nederlands SRT

